# xmcd
#
# Track frame offsets: 
#        150
#        19731
#        39241
#        53263
#        71106
#        91382
#        107546
#        125514
#        144427
#        165724
#        186753
#        205487
#        223912
#
# Disc length: 3196 seconds
#
# Revision: 0
# Processed by: cddbd v1.5.2PL0 Copyright (c) Steve Scherf et al.
# Submitted via: ExactAudioCopy v0.95b4
#
DISCID=b60c7a0d
DTITLE=Frankie J - What's a man to do
DYEAR=1900
DGENRE=R&B
TTITLE0=What's a man to do
TTITLE1=Won't change
TTITLE2=We still
TTITLE3=Wanna know
TTITLE4=Diggin' your style
TTITLE5=Don't wanna try
TTITLE6=Just the way
TTITLE7=Be home soon
TTITLE8=Drinks on me
TTITLE9=From the outside lookin' in
TTITLE10=Ya no es igual
TTITLE11=Please don't go girl
TTITLE12=Count on me
EXTD=
EXTT0=
EXTT1=
EXTT2=
EXTT3=
EXTT4=
EXTT5=
EXTT6=
EXTT7=
EXTT8=
EXTT9=
EXTT10=
EXTT11=
EXTT12=
PLAYORDER=
